<?xml version="1.0" encoding="UTF-8" standalone="no"?>
<!-- Created with Inkscape (http://www.inkscape.org/) -->

<svg
   xmlns:osb="http://www.openswatchbook.org/uri/2009/osb"
   xmlns:dc="http://purl.org/dc/elements/1.1/"
   xmlns:cc="http://creativecommons.org/ns#"
   xmlns:rdf="http://www.w3.org/1999/02/22-rdf-syntax-ns#"
   xmlns:svg="http://www.w3.org/2000/svg"
   xmlns="http://www.w3.org/2000/svg"
   xmlns:xlink="http://www.w3.org/1999/xlink"
   xmlns:sodipodi="http://sodipodi.sourceforge.net/DTD/sodipodi-0.dtd"
   xmlns:inkscape="http://www.inkscape.org/namespaces/inkscape"
   id="svg3004"
   version="1.1"
   inkscape:version="0.91 r"
   width="751.925"
   height="755.5875"
   xml:space="preserve"
   sodipodi:docname="herbs-with_brains.svg"
   inkscape:export-filename="/home/zetof/salads-with-brains/marketting/herbs-with_brains.png"
   inkscape:export-xdpi="90"
   inkscape:export-ydpi="90"><metadata
     id="metadata3010"><rdf:RDF><cc:Work
         rdf:about=""><dc:format>image/svg+xml</dc:format><dc:type
           rdf:resource="http://purl.org/dc/dcmitype/StillImage" /><dc:title></dc:title></cc:Work></rdf:RDF></metadata><defs
     id="defs3008"><linearGradient
       id="linearGradient4353"
       inkscape:collect="always"><stop
         id="stop4355"
         offset="0"
         style="stop-color:#008000;stop-opacity:1;" /><stop
         id="stop4357"
         offset="1"
         style="stop-color:#96c800;stop-opacity:1" /></linearGradient><linearGradient
       inkscape:collect="always"
       id="linearGradient4345"><stop
         style="stop-color:#a90000;stop-opacity:1;"
         offset="0"
         id="stop4347" /><stop
         style="stop-color:#a90000;stop-opacity:0;"
         offset="1"
         id="stop4349" /></linearGradient><linearGradient
       inkscape:collect="always"
       id="linearGradient4337"><stop
         style="stop-color:#c80000;stop-opacity:1"
         offset="0"
         id="stop4339" /><stop
         style="stop-color:#c83c00;stop-opacity:1"
         offset="1"
         id="stop4341" /></linearGradient><linearGradient
       id="linearGradient4173"
       osb:paint="solid"><stop
         style="stop-color:#000000;stop-opacity:1;"
         offset="0"
         id="stop4175" /></linearGradient><clipPath
       clipPathUnits="userSpaceOnUse"
       id="clipPath3020"><path
         d="m 0,0 6015,0 0,6044.68 -6015,0 L 0,0 z"
         id="path3022" /></clipPath><clipPath
       id="clipPath3475"
       clipPathUnits="userSpaceOnUse"><path
         id="path3477"
         d="M 0,400 600,400 600,0 0,0 0,400 z" /></clipPath><linearGradient
       inkscape:collect="always"
       xlink:href="#linearGradient4353"
       id="linearGradient4255"
       x1="706.71582"
       y1="5081.5117"
       x2="5281.1006"
       y2="3104.6697"
       gradientUnits="userSpaceOnUse"
       gradientTransform="translate(109.59573,47.4917)" /><linearGradient
       inkscape:collect="always"
       xlink:href="#linearGradient4337"
       id="linearGradient4343"
       x1="716.94141"
       y1="2969.2517"
       x2="5334.8032"
       y2="944.91803"
       gradientUnits="userSpaceOnUse" /><linearGradient
       inkscape:collect="always"
       xlink:href="#linearGradient4345"
       id="linearGradient4351"
       x1="2088.515"
       y1="-4384.8635"
       x2="3328.8151"
       y2="-4384.8635"
       gradientUnits="userSpaceOnUse" /><linearGradient
       inkscape:collect="always"
       xlink:href="#linearGradient4353"
       id="linearGradient4394"
       x1="2957.3257"
       y1="-3026.9275"
       x2="3696.4141"
       y2="-3026.9275"
       gradientUnits="userSpaceOnUse" /></defs><sodipodi:namedview
     pagecolor="#ffffff"
     bordercolor="#666666"
     borderopacity="1"
     objecttolerance="10"
     gridtolerance="10"
     guidetolerance="10"
     inkscape:pageopacity="1"
     inkscape:pageshadow="2"
     inkscape:window-width="1920"
     inkscape:window-height="1028"
     id="namedview3006"
     showgrid="false"
     inkscape:zoom="1.7668603"
     inkscape:cx="286.29126"
     inkscape:cy="424.61864"
     inkscape:window-x="0"
     inkscape:window-y="0"
     inkscape:window-maximized="1"
     inkscape:current-layer="g3018" /><g
     id="g3012"
     inkscape:groupmode="layer"
     inkscape:label="ink_ext_XXXXXX"
     transform="matrix(1.25,0,0,-1.25,0,755.5875)"><g
       id="g3014"
       transform="scale(0.1,0.1)"><g
         id="g3016"><g
           id="g3018"
           clip-path="url(#clipPath3020)"
           transform="matrix(0.78496037,0,0,0.76271107,665.94156,1191.0108)"><path
             d="m 4283.1144,1341.5788 c 75.2882,0.52 157.9216,1.14 246.0638,1.97 -73.4518,-0.68 -159.7578,-1.36 -246.0638,-1.97"
             style="fill:#296eb9;fill-opacity:1;fill-rule:nonzero;stroke:none"
             id="path3398"
             inkscape:connector-curvature="0" /><path
             d="m 1192.54,1894.3021 c 0.2429,2.3671 -1.234,4.8783 -1.3312,6.8954 0,-1.729 0.515,-4.1063 1.3312,-6.8954 m -154.3183,543.7009 -1.1077,0.3705 c 0.1166,-1.0909 0.4859,-2.1715 0.9523,-3.283 0.2915,-0.4426 0.3983,-0.5043 0.6024,-0.8131 l 1.2631,5.3208 0,0.2265 c 0,-0.8543 -1.2923,2.2744 -1.7101,-1.8217 M 2742.2236,1116.2897 c 18.4226,14.5628 38.7691,30.5561 61.7584,41.7124 -26.9925,21.9522 -54.5098,41.6505 -77.5089,52.9097 -12.9036,6.4734 -24.3011,10.055 -32.6185,11.187 -4.1198,0.422 -7.4817,0.6278 -9.7165,0.2573 -2.3223,-0.2058 -3.5563,-0.3087 -3.5563,-0.3087 0.078,-0.2882 4.2558,2.8199 13.059,4.8474 8.7449,1.9863 21.7846,2.6038 37.1076,0.9365 30.8015,-3.1698 70.3381,-14.82 108.6796,-28.8271 38.3999,-14.0276 75.8766,-30.4634 103.7437,-43.4001 12.6412,-6.0824 23.2031,-11.1357 31.1318,-14.9539 192.3878,-50.347 632.1688,-72.9682 840.4626,106.3031 -49.4378,0.8131 -106.4546,14.8716 -169.3207,42.4533 -1.302,0.5764 -2.6526,1.2042 -4.0129,1.8526 -40.5083,20.0173 -114.2278,78.4228 -157.7677,67.74 -43.5205,-10.6931 -76.2069,-94.3235 -103.4133,-131.8471 -12.9522,-17.9179 -25.4477,-32.5321 -36.7383,-43.3693 -9.7943,-9.7668 -19.1416,-16.2918 -26.74,-18.8853 -3.7991,-1.3894 -7.5594,-0.6484 -9.0849,0.7822 -1.5644,1.3379 -1.8073,2.4185 -1.885,2.3053 0,0 4.1295,-2.6964 7.9772,2.5421 4.1393,4.5489 7.9093,14.1717 12.4761,26.0071 8.502,24.3399 18.0242,60.5565 28.3821,103.689 10.1538,43.112 21.4638,93.5208 29.8006,146.0086 4.1199,26.1101 7.1514,53.0641 7.715,77.404 0.1943,11.9898 -0.9522,23.4342 -2.4486,30.9163 -0.5636,2.8405 -1.1951,4.6209 -1.6421,5.5678 l -6.1992,6.9572 c -23.242,28.3948 -39.1577,55.0606 -54.1309,82.7351 -14.7789,27.3965 -27.391,54.9474 -38.3901,82.169 -22.0274,54.3402 -37.331,107.3529 -45.7067,154.5198 -1.4283,7.9349 -2.5651,15.664 -3.5854,23.2798 -30.9764,-47.3007 -97.3793,-97.0817 -124.6439,-94.4985 31.3067,49.7913 67.8409,153.9126 70.5227,233.9821 -14.6817,17.7224 -28.3237,35.6505 -40.2848,52.5289 -20.57,28.8374 -39.6339,57.0676 -56.5018,85.73 -21.5805,36.4018 -39.8184,73.277 -52.5277,110.039 -28.7707,23.9077 -61.6807,39.6746 -93.5996,29.2902 -7.1222,-13.4615 -14.6428,-27.1804 -22.8727,-41.1668 -8.6381,-15.2524 -18.2672,-30.3606 -28.0614,-45.7982 -10.2316,-14.995 -20.6672,-30.3399 -32.1035,-44.7277 -11.417,-14.6554 -23.4655,-28.4772 -36.5343,-41.4448 -12.6218,-12.9778 -27.08,-24.7207 -41.3925,-34.9609 -15.4008,-9.8183 -30.374,-18.4634 -47.514,-22.9711 -7.9578,-2.47 -17.0914,-3.458 -24.8549,-4.0035 -8.5312,0.5969 -15.9935,0.3396 -23.1449,3.1698 -3.4105,1.163 -6.6752,2.2951 -9.8331,3.3757 -2.9733,1.6055 -5.6939,3.3448 -8.1911,5.0738 -5.1886,3.1184 -8.9975,6.8646 -12.1165,10.4976 -6.7919,6.3706 -9.5514,13.4924 -11.8445,17.5474 -2.1279,4.2401 -3.0121,6.5661 -3.0121,6.5661 0,0 2.3514,-0.5249 6.8016,-1.5026 4.1587,-1.1115 10.2995,-2.5524 17.4801,-2.6656 3.459,-0.4013 7.2194,-0.3705 11.0477,0.7822 1.885,0.4631 3.7311,0.8028 5.5481,1.0909 1.749,0.8028 3.5563,1.6467 5.4024,2.5112 7.0251,3.0463 13.3797,8.7274 20.0647,16.0448 6.6947,6.6999 13.7198,17.1563 21.0947,27.3759 7.336,11.3106 15.0509,23.1255 23.1156,36.5665 8.1134,13.0293 16.3044,27.4995 25.3894,41.6197 8.6866,14.7068 18.3351,29.1461 27.8865,44.2235 9.9984,14.6142 19.9773,29.6504 30.8695,43.9044 10.5911,14.4496 21.9789,28.3743 33.6387,41.4962 11.7765,13.1837 23.8736,25.4308 36.5246,36.4841 12.4469,11.0122 25.5156,20.7173 38.6135,28.5698 1.9531,1.1836 3.8867,1.9452 5.83,3.0258 6.306,10.6519 11.8445,21.6538 15.0995,34.4052 -2.1668,6.0412 -4.5376,12.3706 -7.4429,19.2146 -8.9586,20.6349 -22.7756,43.8839 -41.0038,68.2547 -18.6655,24.1135 -42.1796,49.0503 -70.0953,73.2564 -27.7407,24.309 -60.1066,47.8256 -95.8052,68.9956 -26.7594,15.7361 -55.4912,30.3503 -85.5543,42.2269 l -7.0056,-5.4237 -26.9732,10.9504 c -17.3343,7.0498 -37.6808,13.8217 -59.9608,20.182 -22.5813,3.0258 -46.1925,5.4958 -69.9301,7.7291 -48.0872,3.952 -97.3501,6.8234 -146.2341,6.9881 -48.884,0.7204 -97.6223,-1.1939 -143.8439,-6.3706 -22.9699,-2.9331 -45.4929,-6.5249 -66.2086,-11.784 -20.5505,-5.3002 -39.6921,-12.5559 -53.2759,-20.9025 -25.5837,-15.9521 -20.9586,-31.2353 -16.5376,-58.5084 1.234,-4.7239 2.4778,-9.4066 3.6826,-14.1099 11.3781,-37.7809 31.1804,-73.8225 50.769,-107.4661 19.7538,-33.6642 39.0703,-65.7846 53.6062,-96.8553 14.9635,-30.7413 22.9991,-62.234 22.6202,-88.2308 -0.4081,-26.3057 -9.2405,-44.7381 -15.5465,-55.6268 -2.9636,-5.7119 -6.306,-9.3654 -8.1328,-11.9898 -1.953,-2.5832 -2.9441,-3.9109 -2.9441,-3.9109 0,0 0.5247,1.6261 1.5547,4.7136 0.9911,3.139 2.7498,7.6056 4.0323,13.7086 3.2162,11.8458 4.9749,30.0621 0.447,50.8617 -4.9166,20.9539 -17.655,43.6059 -35.8249,68.0076 -18.3838,24.4531 -42.6071,50.1412 -68.3171,81.037 -25.5643,30.9471 -54.0046,66.8446 -75.4199,114.9069 -2.5749,6.0824 -5.0429,12.134 -7.5206,18.6383 -2.196,6.597 -4.9652,14.923 -6.4033,20.4394 l -2.2931,8.5627 -0.6218,2.1715 -0.1166,0.5352 -0.447,2.1098 -0.3012,1.5746 -1.166,6.5147 c -1.4089,8.7891 -2.0405,18.2884 -1.4866,28.1375 0.2332,4.4872 0.8162,9.0567 1.5838,13.5954 -72.9422,-9.7977 -145.69,0.1955 -212.1513,9.4272 -92.1032,12.7823 -172.8186,23.8356 -236.9187,-14.4599 3.7603,-6.2059 7.2291,-12.3397 10.7367,-18.4839 21.2404,-38.491 36.5537,-75.9631 51.2354,-112.3135 28.4404,-72.8035 50.3998,-141.1508 69.3082,-199.5254 18.9667,-58.3643 34.1051,-107.0338 47.9026,-139.288 6.8988,-16.0654 13.1174,-28.3126 19.2291,-34.8684 5.7911,-7.0189 11.3004,-7.1836 11.3004,-7.1836 0.2526,0.2676 -5.3344,-2.4597 -14.5166,2.4597 -8.8712,4.6622 -20.0938,14.4084 -31.9383,28.4052 -23.9124,27.9111 -52.5471,71.4965 -83.0377,125.1369 -15.3327,26.7687 -31.161,56.0898 -47.5431,87.0061 -16.1489,30.7414 -33.1626,63.2015 -50.7981,96.7422 -17.3344,33.0466 -35.7472,67.1328 -55.0637,97.5139 -9.3765,14.5731 -20.7254,29.599 -27.2064,34.9919 -11.4364,9.8491 -23.1837,16.5285 -31.4233,18.9058 -8.502,2.2951 -12.4567,1.6158 -19.7829,-1.554 -7.3166,-3.1699 -17.1303,-11.5679 -26.3805,-22.9197 -18.889,-22.6211 -35.8735,-55.9972 -49.4281,-86.6047 -10.3093,-22.8785 -14.3611,-56.8103 -15.5076,-88.7763 -1.0591,-32.3984 0.4955,-64.5908 2.4486,-94.5088 2.1765,-29.9386 4.7999,-57.8189 7.472,-82.6425 2.6623,-25.0397 4.9749,-46.8685 6.8987,-64.879 4.2462,-36.1445 6.034,-57.3866 6.034,-57.3866 0,0 -11.4752,17.4857 -27.8962,50.0795 -16.7902,32.491 -38.3513,80.1107 -56.9196,141.4287 -8.9975,30.7723 -17.5578,64.8584 -22.1343,103.2362 -2.2445,19.2044 -3.7992,39.4893 -2.983,61.1534 0,0.3087 0.039,0.6381 0.068,0.9262 -33.3763,18.3913 -80.832,32.1308 -141.5118,17.9282 51.6045,33.5407 113.1978,49.5031 161.2462,55.462 38.8176,22.0449 37.3018,48.0006 39.0119,74.0489 -155.1539,52.2922 -215.7657,-24.5046 -217.8936,-27.3245 l -16.6056,-24.1649 -28.1975,1.1321 c -90.46894,3.705 -162.28399,-49.1944 -183.94511,-100.8691 -11.861,-28.3434 -34.17118,-97.6478 14.946,-129.1816 l 7.85001,-5.0738 c 7.56822,4.8474 15.63296,9.6022 24.63244,14.0893 26.82643,13.2352 59.5139,24.6899 96.53203,31.1839 18.62858,2.964 38.15793,5.1665 59.73843,3.5507 10.8631,-0.7719 22.1926,-2.3157 34.999,-7.0087 6.4032,-2.4185 13.2437,-5.5987 20.4922,-11.043 7.1223,-5.3414 14.9829,-13.6777 19.8509,-25.0603 2.4291,-5.6502 3.9157,-11.6399 4.6348,-17.6503 0.34,-3.2831 0.3886,-7.9246 0.3206,-10.1476 l -0.078,-1.8628 -0.078,-0.9057 -0.2137,-2.9949 -0.7676,-13.6983 c -0.8648,-9.1802 -1.2438,-18.0002 -1.2146,-26.6143 -0.5733,-8.6759 -0.2526,-17.2489 0.078,-25.7396 -0.078,-8.398 0.6899,-17.0431 1.3798,-25.472 0.4178,-8.398 1.0882,-16.9607 2.2056,-25.3794 1.0106,-8.47 1.1855,-16.6931 2.3903,-24.9368 2.0599,-16.4976 3.0121,-32.2439 4.5279,-47.0331 2.4,-29.4858 3.1968,-54.9886 3.119,-73.0094 0.078,-17.9385 -1.1659,-28.5698 -1.1659,-28.5698 0,0 -6.2575,8.3877 -15.1093,23.7018 -9.0946,15.2111 -20.8613,37.2869 -32.6572,65.1671 -6.1117,13.7395 -11.3295,29.424 -16.9943,45.9114 -4.9166,16.9504 -10.1635,34.7448 -13.2339,54.7622 -3.5077,19.5439 -4.936,41.1668 -4.1684,62.625 0.3692,10.8372 1.6809,21.5715 3.2356,31.9455 l 2.4291,10.1373 c -0.6316,0.4735 -1.3409,0.9366 -2.4,1.3791 -4.5765,2.3157 -11.5821,4.4461 -18.9376,5.9795 -14.9441,2.9537 -31.70513,4.0447 -47.93081,4.1579 -32.73701,0.3087 -64.28472,-2.892 -90.86922,-7.3277 -6.50912,-1.0601 -12.68107,-2.2745 -18.56736,-3.5712 l 1.18444,-14.4187 c 22.72703,-268.7373 164.90845,-404.3615 254.58245,-455.4392 11.4267,13.8938 27.4784,27.1186 54.7237,33.551 0.048,0.7513 0.097,1.235 0.097,1.235 0,0 0.7968,-0.2882 2.0308,-0.741 1.1368,0.2573 2.1765,0.5763 3.3716,0.813 l 0.3401,-2.2127 c 2.983,-1.2556 7.3457,-2.645 11.8931,-4.7445 2.4291,-0.988 5.1206,-2.0789 8.0647,-3.2933 3.3814,-0.6896 6.5198,-1.8011 10.0081,-2.6759 6.9279,-1.8937 13.4088,-4.4254 21.765,-5.7633 7.8607,-1.7496 15.4494,-3.9624 24.5052,-5.3312 4.353,-0.7513 8.5506,-1.9657 12.855,-2.9537 4.7222,-0.5249 9.2016,-1.7187 13.8461,-2.5626 8.9295,-2.3568 18.9181,-3.7256 28.4792,-6.1853 9.6097,-2.4598 19.8898,-4.2917 29.6841,-7.2763 10.2315,-2.1201 20.0938,-5.4237 30.2088,-8.0893 10.0663,-2.8919 19.9578,-6.2162 29.6743,-9.3757 9.7166,-3.386 19.1902,-6.772 28.2849,-10.3535 3.0024,-1.2556 5.6162,-2.4391 8.5311,-3.6124 11.1741,1.6467 21.2016,3.8183 29.7521,7.1013 -0.3012,1.8011 -0.5732,3.5815 -0.8162,5.1973 -2.5943,18.8647 -4.1003,37.4927 -5.2663,55.7297 -2.0016,36.515 -1.7101,71.7023 -0.1263,105.2636 3.0607,67.0917 10.4355,127.6687 15.012,178.6333 4.7709,50.8925 6.2769,92.3475 -1.1854,118.4782 -3.9352,12.772 -10.1149,22.0139 -16.0712,26.8922 -5.9174,5.0224 -9.9983,7.0396 -9.9983,7.0396 0,0 1.0882,0.051 3.1676,0.1852 2.1474,0.1338 5.3635,0.1544 9.5514,-0.7101 8.2979,-1.2865 21.4347,-6.9469 32.9099,-20.3776 11.8154,-13.0602 21.6777,-32.0072 29.4023,-53.9903 7.715,-22.0449 13.6129,-47.1361 18.1894,-74.2753 9.221,-54.2785 13.302,-116.6257 17.072,-181.2062 2.0502,-32.2749 3.7506,-65.126 6.6461,-97.5449 1.2535,-16.2506 3.2356,-32.2645 5.2858,-48.052 1.1369,-8.4804 1.8656,-14.2746 3.498,-23.568 1.1854,-6.6485 2.4194,-12.7309 4.3433,-19.122 6.753,-25.5646 20.1036,-50.7896 36.3788,-74.5223 16.5861,-23.5166 36.2913,-45.4585 57.5414,-64.4982 42.4031,-38.3984 89.7227,-66.8344 132.563,-82.1382 1.3992,-0.5043 2.7109,-0.8645 4.0712,-1.3379 60.0095,32.5115 98.4676,128.1627 212.229,143.9811 -74.6426,-76.3439 -56.152,-144.2075 -16.693,-206.2562 34.1828,-53.7228 67.8798,-34.3126 104.9193,-35.383 91.8604,-2.6243 100.8093,-110.4506 219.497,-180.8459 27.7797,-16.4565 115.6756,-40.0554 136.469,-67.7607 20.6477,-27.4994 18.374,-31.9557 28.1003,-68.9853 15.4008,-58.6628 0.6316,-122.4714 -14.9926,-179.1891 -3.4883,-12.6588 -6.8405,-24.3707 -9.8138,-35.2079 58.8532,-7.832 97.3696,-9.9212 99.1575,-10.0036 87.4587,-3.5403 133.1751,32.5836 177.3854,67.5754 M 2417.807,1065.706 c -0.5247,12.0001 -0.7385,24.309 -0.7968,36.8752 -0.4469,75.0883 34.9213,135.9123 -16.7125,193.2989 -17.0136,19.2455 -73.0879,41.8153 -94.3769,60.0007 -18.1602,15.9007 -37.6225,30.9884 -57.0944,46.1172 -67.5787,17.465 -55.6176,-17.4136 -85.8264,-67.8636 -4.6833,-7.8525 -8.638,-15.3964 -13.9238,-21.8184 -2.4291,-3.2419 -4.8194,-6.3603 -7.1222,-9.3963 -2.6721,-2.6965 -5.2372,-5.3414 -7.715,-7.8526 -4.6542,-5.187 -9.8137,-8.9435 -14.3707,-12.0516 -4.2948,-3.3757 -8.2786,-5.8457 -11.932,-7.2454 -6.8793,-3.1801 -10.7659,-4.9915 -10.7659,-4.9915 31.7051,47.7021 57.2985,97.2053 28.6541,162.4856 -3.9061,17.4033 -8.9878,32.9747 -14.0696,44.5528 -1.9433,5.2385 -4.4502,8.8921 -6.2089,12.5251 -1.8461,3.1698 -2.8566,2.6964 -3.6048,3.9005 -4.1781,5.7119 -6.5684,9.0053 -6.5684,9.0053 l 0.5053,0.2676 c -17.723,9.3037 -34.9796,18.4839 -50.8468,27.4994 -39.9544,22.5492 -72.2328,44.7587 -93.6481,62.1208 -0.3984,0.319 -0.7385,0.5763 -1.1369,0.916 -19.8995,15.6948 -63.5948,15.7257 -87.2546,10.3431 -47.582,-10.8269 -52.8969,-16.4358 -55.9868,-70.1586 -1.6518,-29.4137 -1.5255,-59.0538 2.9247,-88.2 9.0655,-59.5478 35.9026,-112.262 75.245,-155.5283 89.7809,-98.6667 223.5973,-148.8491 345.8219,-182.9661 15.4979,-4.3534 186.6453,-37.9559 186.8105,-41.8358 m -705.111,475.4977 4.3044,3.2213 c -1.8072,7.5438 -3.1384,15.3758 -3.3619,23.7533 -0.4178,14.0893 1.1854,29.0432 5.9077,43.1943 3.3911,10.8681 8.4048,21.1906 14.4679,30.093 -38.6719,10.4667 -78.7526,28.4154 -117.2011,54.4534 -28.8095,19.8939 -57.075,44.0486 -81.7745,74.1107 -17.8299,21.2215 -33.6581,45.8598 -46.1148,73.2873 -13.1076,1.6981 -29.412,4.0858 -46.5617,7.4614 -16.6736,-5.187 -35.6597,-9.1699 -55.9576,-10.0344 -11.7765,-0.9159 -23.9416,-0.3396 -36.3205,0.6587 -12.3206,0.8851 -24.855,3.6638 -37.2533,6.2574 -12.4372,3.6638 -24.6897,7.1218 -36.5925,12.525 -11.8445,5.4649 -23.2712,10.9401 -33.9205,18.4942 -5.2664,3.7153 -10.5619,6.9778 -15.3813,10.8886 -4.7903,4.3225 -9.5223,8.326 -13.8267,12.6794 -8.774,7.9864 -16.0615,17.887 -22.2023,26.9231 -2.3709,3.211 -4.149,6.6999 -5.9854,10.1785 l 7.0251,-46.9508 c 0.4469,0.597 0.5441,1.2556 0.5927,1.904 8.1522,-27.9935 60.262,-109.2054 226.2791,-251.406 190.4931,-163.1854 291.108,-103.4214 293.8772,-101.6924 m 1674.9786,19.8218 c 0,-0.093 0,-0.051 0,-0.051 0,-0.041 0.049,-0.1029 0.097,-0.175 -0.029,0.021 -0.068,0.1956 -0.097,0.2264 m 1.1077,-1.6981 -0.3303,0.3602 c 0.7384,-1.0909 2.2445,-2.5626 0.3303,-0.3602 M 2795.0231,2792.378 c 37.2533,-29.3108 69.2693,-61.1122 95.504,-93.5105 23.5918,-28.7962 41.8589,-58.3643 56.0354,-86.4504 78.8304,-85.73 62.2345,-93.9839 146.6131,-64.9716 7.4817,5.6399 14.5942,10.549 20.5505,14.1717 8.2785,5.3929 15.1578,8.5215 19.6177,10.8783 4.4891,2.3054 6.8016,3.4992 6.8016,3.4992 0,0 -2.0405,-1.6981 -5.9368,-4.9503 -3.9158,-3.2831 -9.8137,-7.9349 -16.8874,-14.7377 -9.7068,-9.0362 -22.4549,-22.0758 -34.5035,-39.3864 -7.0348,-11.1357 -13.127,-21.8287 -18.2477,-32.3572 -13.4574,-31.0809 -16.9845,-71.8052 -3.9643,-115.3804 13.4671,-46.4259 42.4516,-94.9925 79.0053,-144.1457 18.2477,-24.5972 38.7302,-49.6678 60.573,-74.6561 5.5773,-6.3603 11.2032,-12.7411 16.8679,-19.2249 5.5482,-6.0515 11.1352,-12.1648 16.7708,-18.3193 11.4753,-12.0721 33.836,71.7305 47.902,110.3024 11.186,21.426 -2.8624,20.7478 26.49,42.3604 7.2934,5.3703 30.8321,37.2579 29.472,26.8354 -2.4928,-19.1034 -1.8188,-66.1061 -12.0199,-90.2929 -9.946,-23.582 -19.8576,-50.121 -27.1173,-91.6931 -37.3305,-71.778 -11.9367,-157.3528 -22.2363,-149.5208 6.8113,-16.0962 15.2744,-34.0244 25.0104,-53.3007 19.6469,-38.8307 44.1423,-83.4658 71.1738,-130.2417 13.4574,-23.0946 27.6436,-46.6729 42.1504,-70.0145 21.0946,-33.9112 37.7974,-54.155 53.101,-91.9976 4.1878,-10.3432 7.8801,-26.0587 11.5724,-42.0108 34.863,-1.8319 61.5738,30.0415 70.0855,79.5652 23.9707,-52.251 -12.4275,-116.0802 -32.1715,-168.146 13.0979,-20.8407 28.1391,-43.4722 44.1909,-65.1877 25.0687,-16.6623 51.7989,-32.3674 78.6846,-45.8907 48.233,-24.165 204.6696,-93.5003 269.0903,-15.5199 4.8389,29.9283 12.3595,60.0006 23.3781,88.1279 -25.4768,4.7342 -52.6832,10.9915 -79.773,19.1426 -44.6767,13.2866 -88.4206,31.7911 -117.5703,52.7965 -14.5651,10.5078 -25.0395,21.7464 -30.714,30.6281 -5.7522,8.8715 -6.9182,14.8921 -7.2097,14.6863 0.2526,0.2058 3.0899,-5.187 10.5619,-11.4753 7.404,-6.3088 19.3262,-13.0602 34.6492,-18.0928 30.7821,-10.1373 74.1859,-14.0688 117.3469,-13.019 43.1318,0.8645 86.2733,6.2573 116.5889,12.6279 4.7125,0.9366 8.9781,1.9863 12.9813,3.0155 34.659,34.4875 72.2523,60.5153 118.7558,41.6608 73.1073,-29.4651 88.7024,-30.978 210.2857,23.177 20.6379,16.1683 59.4167,46.4362 61.3892,47.4654 5.4801,3.1904 15.1675,13.0087 19.2193,20.2952 16.6639,29.3314 34.212,80.5533 53.4411,131.1885 19.229,50.7073 104.0304,29.0454 131.0716,60.9292 6.5004,8.0069 13.3603,14.6348 19.7635,19.8218 6.4032,5.2179 12.34,9.242 17.5869,11.6914 10.2121,5.4032 16.7125,6.2265 16.5473,6.597 0.1846,-0.3293 -5.8882,-2.9434 -14.0598,-10.6108 -4.2073,-3.5712 -8.6963,-8.8097 -13.1951,-15.0053 -4.5182,-6.2471 -9.0461,-13.6468 -12.991,-22.3742 -16.5959,-34.4978 -87.4832,-12.6507 -93.5463,-65.2517 -5.7037,-47.4551 -9.6,-95.3218 -18.7044,-137.5487 22.6979,-0.1029 42.8306,-2.6759 60.2523,-5.0224 53.3925,-7.2351 37.05,3.7724 80.3365,64.2718 80.8887,113.0542 50.9252,69.1561 111.8638,119.8374 54.025,39.1054 209.7514,71.9278 260.4409,65.2092 52.4342,77.8008 79.726,115.083 96.798,136.7985 55.7925,70.8687 114.0169,160.6407 111.0728,201.2929 -2.1571,29.6608 0.6413,67.6166 -9.6388,95.9806 -17.1692,47.2698 -103.9186,115.3495 -140.4722,148.602 -18.2089,16.58 -37.7197,30.8752 -57.6581,35.8358 -9.9692,2.9743 -19.9578,3.1492 -29.5772,1.5952 -4.7805,-0.9777 -9.5902,-1.8217 -13.9821,-3.8697 -4.5862,-1.5335 -8.9198,-3.5507 -12.855,-6.031 -8.3659,-4.1887 -15.0315,-10.2402 -21.3473,-15.0259 -5.6841,-5.5575 -11.1643,-10.1785 -14.9926,-14.5936 -7.783,-8.9332 -12.2429,-14.0379 -12.2429,-14.0379 0,0 3.1579,6.1647 8.638,16.9402 2.7207,5.4854 6.996,11.4546 11.5045,18.772 5.2469,6.6691 10.727,14.9539 18.8306,22.1684 3.7409,3.9829 8.0745,7.6467 13.0591,10.971 4.6931,3.8182 10.2412,6.6072 16.0712,9.5095 11.7278,5.4237 25.6905,9.0773 40.0808,8.9023 29.2857,0.6381 57.9106,-11.0121 83.3,-24.1546 25.4379,-13.4513 48.9909,-28.6933 69.4831,-43.3178 79.7146,-56.8618 91.5882,128.492 88.5275,157.8954 -5.1303,49.3797 -38.3512,87.9118 -65.8394,107.1265 -26.1278,18.2986 -62.7398,21.8699 -100.4303,9.8286 -41.101,-13.1631 -110.6813,-27.4995 -189.2493,-35.3932 5.1886,-5.4444 10.3675,-10.7549 15.1286,-16.4977 5.898,-7.3482 11.7182,-14.5627 17.3247,-21.5302 11.2809,-13.6057 19.948,-29.0741 27.7699,-40.4156 4.0129,-5.8251 6.2089,-11.8252 8.9392,-16.7652 2.536,-5.0429 4.732,-9.4581 6.549,-13.091 3.634,-7.2557 5.723,-11.3827 5.723,-11.3827 0,0 -3.3716,3.0464 -9.2696,8.3878 -2.9441,2.6861 -6.5198,5.928 -10.6299,9.633 -4.217,3.5095 -8.4631,8.3672 -14.0404,12.031 -5.3538,3.7668 -11.1643,7.832 -17.3052,12.1648 -6.0048,4.2711 -12.1554,8.6759 -19.5108,12.5045 -7.0154,3.952 -14.2542,8.079 -21.6291,12.2368 -7.3651,3.9932 -15.4202,7.2351 -23.0574,10.8886 -15.0801,7.4924 -31.501,12.5662 -45.9593,18.1649 -15.2161,4.4357 -28.829,9.1391 -41.0233,11.6811 -11.9805,3.0875 -21.9302,5.0944 -28.8873,6.175 -1.1757,0.2265 -2.0891,0.4014 -3.0801,0.5867 -53.3051,2.0377 -105.2984,8.6553 -150.6066,22.2095 -72.4272,21.7361 -250.522,2.5935 -348.5329,-19.297 0.6802,-1.5129 1.3701,-3.0155 2.0599,-4.5386 4.217,-11.0636 8.2105,-22.2713 10.8631,-33.0879 5.9466,-21.767 9.6291,-42.618 13.5255,-61.8738 3.7311,-19.2969 7.6275,-36.7825 11.6307,-51.757 1.7976,-7.6776 4.1781,-14.0173 5.9854,-20.0997 1.7295,-6.0721 3.8089,-11.2694 5.5676,-15.4685 3.4008,-8.5215 5.3441,-13.3998 5.3441,-13.3998 0,0 -3.3425,3.9109 -9.1822,10.7755 -2.9538,3.4065 -6.4906,7.5232 -10.1343,12.8337 -3.6632,5.1871 -8.3757,11.0945 -12.4664,17.7738 -8.7254,13.1837 -18.3254,29.2594 -27.8768,46.3745 -9.7359,17.0328 -19.6468,35.28 -30.3739,51.2527 -5.1789,8.2951 -10.9311,15.2626 -16.3724,21.9214 -2.8081,2.9125 -5.6162,5.8354 -8.3562,8.7067 -2.847,2.4495 -5.7328,4.3534 -8.3563,6.4838 -0.2818,0.2676 -0.583,0.3499 -0.8648,0.5661 -21.6582,-11.3724 -42.2281,-4.3637 -58.4159,4.1681 -1.0299,-0.2573 -1.7004,-0.4117 -1.7004,-0.4117 l -0.078,1.3277 c -3.2648,1.7907 -6.3935,3.5403 -9.2405,5.2076 -43.7439,25.5543 -83.5235,43.2972 -127.3063,1.5849 -40.0905,-38.1925 -78.1891,-54.7622 -116.4917,-50.6249 -53.2079,5.753 -84.0482,50.0692 -102.5,76.5497 -2.6235,3.7668 -5.9271,8.5216 -7.9384,11.3106 -29.7812,8.9641 -131.1929,5.5884 -165.4729,4.4563 -11.281,-0.3808 -20.9878,-0.6998 -28.3238,-0.813 -63.3325,-1.0909 -96.1162,-21.8699 -104.6764,-32.4601 0,0 60.8256,-201.347 61.292,-201.5117 1.7392,-0.7513 1.7878,-3.7359 1.6615,-6.8646 l 3.4202,-11.2797 c 4.4599,-3.3036 0.9425,-6.5044 13.8461,-12.1957 2.468,-2.5832 7.0348,-3.9005 11.9417,-5.1561 9.4348,-0.422 18.6363,-1.2968 27.7213,-2.6759 42.3642,-6.4941 82.8822,-20.11 123.4877,-36.9678 40.4597,-17.146 80.5405,-38.1617 119.7857,-62.8001 2.1959,-1.2967 4.9652,-3.211 6.6558,-4.0961 l 4.3725,-2.5214 c 2.8761,-1.7805 5.8979,-2.6656 8.774,-4.1373 6.0243,-1.9142 11.9806,-3.777 18.6364,-4.1476 13.0493,-1.1629 28.5764,0.4529 45.5901,5.4752 17.0039,5.1047 35.2419,12.3192 54.2669,20.9951 18.9765,8.6965 38.6914,18.4428 60.1164,27.6436 21.3569,9.2008 44.22,18.6794 72.1745,23.1666 13.7878,2.3054 29.3829,3.1905 45.8816,0.2676 3.6923,-0.4528 8.7546,-1.6981 13.7975,-3.3036 l 7.3166,-2.4906 c 2.2153,-0.8234 2.6526,-1.2453 4.0518,-1.8628 l 3.5368,-1.7496 4.4891,-2.1098 1.3117,-0.6896 5.1595,-2.8611 c 27.5853,-14.1716 56.3754,-15.7977 86.3316,-5.7736 60.2234,23.2742 107.2436,66.0655 152.0835,107.3426 20.4048,18.5559 38.8468,34.683 54.9277,47.1051 16.1975,12.2369 30.8112,20.2438 41.8103,22.2507 11.2421,2.0481 16.4501,-2.0789 16.3335,-1.6775 0,0 -1.3991,0.1955 -4.0615,0.01 -2.536,-0.072 -6.3449,-1.1836 -10.6493,-3.5301 -8.8129,-4.5489 -19.2485,-15.6743 -31.1221,-31.1016 -61.3464,-81.596 -109.0711,-166.0019 -192.5336,-210.3729 -10.4259,-5.3311 -21.8234,-9.9109 -33.8816,-13.3689 2.3805,-9.0876 4.6348,-18.453 6.4032,-28.1684 1.0397,-6.5558 2.332,-12.6794 2.915,-19.2764 0.7384,-6.4529 1.4089,-12.6485 1.4477,-18.9573 0.3498,-6.0927 0.2041,-12.1134 -0.3595,-17.8767 -0.1652,-5.537 -1.302,-10.9813 -2.3417,-15.767 -0.7384,-4.7238 -2.5554,-9.0464 -4.0226,-12.597 -9.6068,-18.5408 -7.8433,-15.4143 -9.6486,1.4923 -0.6315,3.3036 -1.1271,6.7616 -2.8469,10.6005 -1.4186,3.7667 -2.8373,7.5849 -5.2761,11.609 -2.0211,3.952 -4.4696,7.9658 -7.4623,12.0001 -2.5943,4.0241 -5.9368,8.0276 -9.221,12.0105 -3.051,3.9417 -7.0057,7.8217 -10.4453,11.6399 -14.4971,15.2112 -31.1222,28.6213 -43.6468,37.9867 -6.238,4.7239 -11.6113,8.3466 -15.255,10.7754 -1.885,1.3174 -3.0218,1.7599 -3.9449,2.326 -1.0494,0.7307 -1.6324,1.0806 -1.6324,1.0806 l 3.2648,2.9023 c -3.0413,0.9468 -6.1312,1.7701 -9.1142,2.8713 l -9.0072,3.6433 -2.2834,0.9263 c 5.3052,-2.398 1.2049,-0.5764 1.817,-0.9263 l -0.9328,0.2985 -3.7214,1.2041 c -1.03,0.3088 -2.983,1.1115 -3.2648,0.9674 l -0.2818,-0.5351 c -0.039,-0.2985 -0.029,-0.2059 -1.5741,-0.3191 -4.2558,0.082 -9.9789,-0.6998 -16.9262,-2.8302 -13.7198,-4.1167 -30.8598,-12.1339 -48.8743,-21.7052 -17.995,-9.7257 -37.2435,-20.7275 -58.0758,-31.2765 -71.3991,-37.9664 -148.0352,-54.4011 -218.8557,-17.3828 l -9.8137,5.9281 c -3.0705,1.8216 -4.8194,3.1184 -7.2583,4.7959 -34.3383,23.5269 -69.6968,44.6866 -104.4044,63.2426 -9.8428,5.2385 -19.6468,10.23 -29.412,14.995 -56.0645,-27.52 -181.2429,-55.637 -240.6791,-36.8649 -19.7148,-5.9692 -38.3609,-8.079 -54.2378,-6.7102 -21.4638,1.3482 -36.8354,9.3655 -45.8427,15.4685 -4.5182,3.1904 -7.6858,5.8971 -9.6679,7.9863 -2.0114,1.9349 -3.051,2.9126 -3.051,2.9126 0,0 5.3246,-2.2951 15.2161,-4.549 9.9206,-2.1818 24.5829,-2.717 41.6451,1.8423 17.0623,4.8268 36.3594,15.1185 56.1812,30.5149 19.4622,15.7154 40.1293,36.834 57.2791,61.4003 2.3028,3.2934 3.2744,4.9915 5.6064,8.6554 -1.37,13.4615 -2.5166,28.5595 -3.0413,32.8203 -0.5635,7.729 -2.5554,13.7806 -1.7878,20.4393 0.4664,3.0052 -0.1069,22.9814 -0.7288,45.0057 l -85.7971,131.0135 c -43.2679,61.3489 -387.3019,178.5303 -580.1561,143.6414 8.8712,-6.2162 17.5286,-12.525 25.8849,-18.9779 m 1898.596,-1104.301 c -27.0857,-39.8413 -10.6122,-60.5501 -23.6615,-79.1164 81.551,-0.813 141.7954,18.7779 206.5271,145.4071 8.881,17.3724 40.0785,56.2429 52.2631,74.6856 -95.2267,-36.9213 -192.8956,-87.4609 -235.1287,-140.9763 m -301.2909,-134.6156 c -137.8294,-62.6456 -183.9247,-83.3937 -261.3851,-61.7091 l 0.02,-0.1544 c -41.4023,9.17 -65.7131,-7.482 -83.1154,-25.0911 -31.4234,-31.7706 -52.3626,-94.1075 -56.599,-164.7395 89.7324,-14.0894 195.8566,-1.0806 267.1761,62.3369 55.0638,48.968 122.0983,75.8499 186.9368,101.8571 69.3957,27.8391 134.963,54.2682 161.7321,101.8982 -22.4064,-3.7358 -46.8629,-1.6466 -70.7462,1.5541 -39.3812,5.3105 -84.0094,11.3312 -144.0188,-15.9522 M 2561.3305,936.75067 c -8.0161,0.2367 -762.701,35.8357 -861.2463,484.91483 -70.0272,-11.9899 -187.6752,0.5043 -343.5482,134.0289 -165.7742,142.0257 -229.301,233.1382 -251.9017,290.7924 -118.31653,50.3265 -309.78222,211.505 -346.32521,537.8552 -43.29989,38.0588 -59.3701,89.3115 -58.64913,141.5728 0.54316,38.3881 10.11494,77.3011 24.59941,111.871 33.51434,79.9254 128.11375,163.2265 260.29679,167.477 40.89794,39.2732 144.68044,108.0013 328.12904,40.7655 15.7797,18.9985 38.6038,37.8015 69.7163,44.2235 35.6986,7.3586 71.8247,-3.1596 107.7954,-31.2559 93.1526,54.227 197.7028,39.7157 299.2019,25.616 89.4312,-12.4118 173.8583,-24.134 250.6871,7.7703 109.5749,174.1099 413.6454,57.5472 604.6224,-8.7892 176.5984,100.9309 558.527,10.7858 723.4169,-92.3166 36.6897,40.5596 101.6644,65.0024 178.5806,66.3301 6.9279,0.1132 16.0518,0.4116 26.7108,0.7616 131.1929,4.3636 199.51,1.4923 232.8864,-26.5115 11.5238,-9.6948 20.0064,-21.8699 28.9845,-34.7551 6.4129,-9.242 21.4639,-30.8752 28.0711,-31.5647 2.8664,-0.2985 14.74,3.1184 35.0476,22.4668 98.7202,94.0251 203.387,39.5922 243.9244,16.23 102.3931,40.7861 366.285,70.2616 469.8829,39.2321 129.8715,-38.9233 347.8527,-9.5405 433.4167,17.7943 67.8798,21.7464 136.9062,13.1734 189.3368,-23.5371 38.0597,-26.635 85.7194,-80.5224 96.7088,-186.0639 9.6777,-93.3973 -5.0234,-188.0914 -18.0047,-271.6189 -8.4437,-54.2476 -16.421,-105.5106 -13.9433,-138.5676 6.5101,-86.7695 -71.2515,-185.4876 -161.2365,-299.8903 -46.8435,-59.5272 -95.2611,-121.0614 -119.9412,-169.3192 -67.0636,-131.1885 -196.0703,-267.6155 -331.2956,-279.3068 -47.3391,-68.7487 -127.0537,-100.725 -204.4363,-131.7957 -56.5698,-22.6727 -115.0635,-46.1378 -156.3686,-82.8586 -111.8084,-99.418 -276.0667,-110.286 -402.1002,-76.6836 -252.8053,-281.39613 -869.6122,-221.78653 -1047.8819,-145.6998 -18.7043,8.6142 -27.3521,5.0533 -70.9308,-29.4446 -50.6233,-39.99363 -119.912,-94.77643 -244.2062,-89.72323 M 1191.1796,1901.4137 c 0,-0.082 0.029,-0.1441 0.029,-0.2162 0,0.103 -0.029,0.2162 -0.029,0.2779 l 0,-0.062 z m 2594.8061,-119.8882 c -37.6419,-22.0037 -199.7918,-10.8886 -199.7918,-10.8886 0,0 117.9492,-83.7334 198.6064,-73.1329 74.8855,9.9109 194.5157,39.0056 219.9633,-33.0982 -3.9254,141.9227 -166.9401,147.47 -218.7779,117.1197 m -608.2952,-551.8622 c 3.974,18.8852 9.2987,41.7534 13.8266,68.4398 4.8,26.6865 10.1344,57.0161 12.6316,91.6169 1.8461,34.6728 4.042,73.3284 -10.4842,119.7955 -3.6826,11.5782 -9.4445,23.6195 -17.0331,35.3829 -7.7927,11.7326 -18.4032,22.9403 -30.8209,31.822 -12.204,9.1596 -28.3141,14.6966 -36.2622,17.4959 -12.7579,4.1887 -22.5813,6.5456 -33.5319,9.0361 -42.3836,8.8509 -83.0085,11.9179 -122.2537,16.2404 -38.8856,4.5489 -77.3535,9.5816 -106.8821,21.4479 -14.8663,5.4958 -26.4387,12.7206 -34.3577,20.532 -3.8186,4.0652 -6.8599,8.2745 -9.7943,12.8543 -5.3441,9.5096 -10.6979,19.0191 -16.0226,28.4463 -10.3676,18.3296 -22.7464,38.8615 -34.7853,56.4398 -11.9708,18.1546 -24.4079,35.9078 -37.4378,52.3333 -4.1976,5.4649 -8.434,10.652 -12.6316,15.9213 60.9714,21.3965 163.0535,41.0948 190.6777,83.1056 -89.3923,-37.9455 -221.6152,-15.7669 -300.7857,44.6763 -6.5295,7.6468 -13.3116,15.4376 -19.4136,22.8476 -19.5886,23.8151 -36.9715,46.1481 -51.2354,66.8653 -8.8324,21.6023 -18.9376,45.0674 -28.7125,64.8687 15.6048,16.7446 29.1594,34.8065 40.7999,53.4448 30.1699,49.0606 47.8443,100.3648 56.8515,152.4409 1.3118,7.2762 1.7782,12.3398 2.5652,18.1134 0.8162,9.1185 1.4186,15.6331 1.1951,23.4239 0.02,14.9745 -2.0307,29.3829 -5.3635,42.6386 -6.5878,26.779 -17.4412,49.1532 -29.4315,68.2855 -24.1553,38.1514 -51.5754,64.9202 -76.7316,86.3887 -25.1173,21.5405 -47.9415,37.9661 -67.3066,50.522 -19.1124,12.8235 -34.6395,21.911 -45.1917,28.1581 -10.6396,6.1442 -16.3238,9.4272 -16.3238,9.4272 0,0 16.3238,-21.6434 45.6192,-57.2013 14.2154,-18.1649 31.8801,-39.5819 49.846,-65.0951 17.5384,-25.6778 36.7771,-54.968 49.7099,-87.3972 6.1991,-16.2404 11.2517,-32.8821 12.3303,-48.9165 0.6218,-8.0482 0.5733,-15.7978 -0.4956,-23.2799 -0.2137,-3.4271 -1.506,-8.079 -1.9044,-10.2711 -1.234,-5.4032 -2.5166,-11.7017 -3.7603,-15.6434 -10.0567,-37.997 -27.8865,-78.4949 -51.799,-112.509 -24.1845,-34.0347 -55.0637,-61.5857 -90.9664,-76.0867 -35.8152,-14.9641 -77.1008,-16.6931 -119.7274,-8.5627 -10.7659,1.7908 -21.114,4.7548 -32.3366,7.7497 l -36.0873,10.7136 c -23.7862,6.9572 -47.2808,14.1306 -69.4054,22.0552 -22.0566,8.0687 -43.2192,16.1889 -60.7285,25.9763 -17.6258,9.9212 -31.0055,20.3981 -42.0338,34.0964 -21.9594,27.448 -37.603,72.8653 -52.4694,115.2055 -3.8866,10.9709 -7.6566,21.7361 -11.4461,32.3983 -4.2558,11.5061 -8.5797,21.9831 -13.0299,32.3777 -8.9295,20.5834 -18.2768,39.7981 -27.4784,58.0761 -18.5683,36.4636 -37.467,68.6664 -55.7536,96.2893 -17.927,27.8185 -35.6014,50.8411 -52.0321,68.3782 -16.1392,17.4959 -31.9481,29.8562 -45.6678,32.1718 -6.928,1.2248 -12.1943,-1.6981 -14.3708,-4.0652 -2.4195,-2.3465 -3.0316,-4.0137 -3.1385,-3.9211 -0.3206,-0.6793 5.9854,6.7308 15.7506,1.5437 9.5513,-4.9914 19.4331,-20.0276 29.9172,-39.7363 10.4162,-20.0379 21.0461,-45.7672 32.5991,-75.5411 11.0963,-30.0004 22.7756,-64.3335 34.5423,-101.8468 5.9563,-18.6692 11.6988,-38.3367 17.1303,-58.4673 2.7692,-9.952 5.451,-20.3261 7.6372,-30.1547 2.4486,-10.8372 4.9263,-21.8184 7.4721,-32.954 5.5675,-22.7447 11.3003,-46.3539 19.3165,-71.5275 7.8898,-24.8956 18.8209,-52.1481 36.5439,-78.6595 2.9247,-4.446 6.3061,-8.5113 9.6194,-12.6794 -28.761,-35.4755 -53.8297,-81.531 -83.2028,-122.9551 -14.7401,-21.026 -30.5975,-40.3229 -47.5043,-55.6267 -8.5797,-7.2557 -17.276,-13.9659 -26.2347,-18.6795 -8.9003,-4.868 -17.9756,-8.2231 -26.7302,-9.9727 -8.7352,-1.7907 -17.14,-2.2333 -24.5732,-1.554 -7.5789,0.3911 -14.0307,2.0275 -19.4331,3.3654 -5.451,1.2556 -9.4542,3.211 -12.3497,4.1064 -2.8956,1.0497 -4.4016,1.5952 -4.4016,1.5952 0,0 1.3214,-0.9468 3.8283,-2.6964 2.604,-1.6879 6.1117,-4.6931 11.2129,-7.5233 5.0915,-2.7684 11.3003,-6.3294 19.1513,-8.9538 7.7441,-2.9022 17.0137,-5.0841 27.459,-5.8148 10.4356,-0.8439 21.9788,0.1029 33.8233,2.9126 11.9708,2.5935 23.8833,7.4306 35.9221,13.1425 23.621,11.959 46.5423,28.6315 67.5107,46.4362 28.4306,23.99 54.7042,49.709 77.3535,69.8704 61.3114,47.733 325.592,5.8252 336.2996,-137.6002 -11.3975,-25.297 -10.3384,-51.9628 -9.1335,-81.1913 3.1773,-75.428 16.0809,-130.3548 37.9917,-201.1412 19.1805,-61.9664 49.1269,-99.1607 87.5559,-153.0893 73.4377,-103.0612 173.0421,-135.2228 250.658,-133.1439 7.0736,0.175 10.5619,2.398 10.5619,2.398 0,0 -3.6632,1.4203 -10.5619,4.0138 -6.8016,2.2744 -16.6736,6.2573 -28.9068,10.0035 -3.0704,1.0498 -6.306,1.8628 -9.5708,3.2522 -3.2356,1.6158 -6.5975,3.2625 -10.1149,5.0532 -6.9474,3.561 -14.4583,6.8337 -22.2801,10.549 -8.0064,3.1184 -15.7019,8.7274 -23.8056,13.8321 -7.9384,5.6296 -17.0622,9.2625 -24.9229,16.477 -8.0162,6.4118 -16.3724,13.1117 -25.0299,20.0277 -7.8315,7.7805 -15.8962,15.8492 -24.2039,24.1238 -8.0939,8.2745 -15.3327,18.2781 -23.2128,27.4274 -7.7927,9.3243 -14.4486,20.4805 -21.8914,30.659 -7.2194,10.5387 -13.302,22.4771 -20.3271,33.6127 -6.306,11.712 -11.9416,24.1959 -18.4517,36.0931 -10.6979,25.3485 -21.9983,50.9851 -29.7132,77.9906 -26.2056,91.483 -35.4169,203.2099 15.3035,288.3429 9.221,15.4479 19.9287,26.2645 32.9877,32.8512 0.2721,0.1235 0.515,0.1646 0.7968,0.2984 19.7829,-0.093 40.0516,-3.4271 57.7066,-7.7805 7.2971,-17.64 15.7214,-36.0416 25.6712,-54.896 15.6242,-29.8048 34.2897,-60.9269 55.0151,-92.4299 5.14,-7.7496 10.387,-15.5816 15.6534,-23.5165 5.9076,-8.6451 8.1327,-12.6794 14.4873,-22.8065 10.4356,-16.2712 21.0947,-32.9232 31.9481,-49.853 10.1635,-16.4462 20.2201,-33.0262 29.9172,-50.3574 5.0235,-8.6142 9.6486,-17.3107 14.1279,-26.0072 4.6931,-8.717 9.4154,-17.0019 14.2348,-26.8407 4.7222,-9.3243 9.4736,-18.6589 14.2153,-28.0038 7.2485,-14.3261 16.6444,-27.6127 27.459,-38.9953 21.7553,-22.58 47.1544,-36.9575 71.1154,-46.3848 14.7303,-5.4751 29.0914,-9.5404 43.1804,-12.7514 17.5675,-75.2942 -40.0419,-167.652 -50.7398,-182.2662 77.3243,9.9829 148.877,111.7474 163.5296,169.4324 34.212,-1.5952 66.6361,-2.0686 95.2319,-5.0017 8.1522,-0.8542 17.2761,-2.2333 22.9408,-3.2831 10.2607,-2.6758 12.6121,-2.6964 16.1684,-4.271 6.7724,-2.5936 13.642,-9.5096 19.9092,-21.201 12.4566,-23.6812 18.5198,-57.7056 22.4452,-88.272 3.8867,-31.1118 6.2575,-60.9887 8.2494,-87.6031 1.6032,-26.6349 3.7797,-50.2132 5.5481,-69.5925 3.6146,-38.841 8.0551,-60.8138 8.0551,-60.8138 0,0 4.7125,21.6332 12.9133,59.4759"
             style="fill:url(#linearGradient4343);fill-opacity:1;fill-rule:nonzero;stroke:none;stroke-opacity:1;stroke-width:0;stroke-miterlimit:4;stroke-dasharray:none"
             id="path3400"
             inkscape:connector-curvature="0"
             sodipodi:nodetypes="cccccccccccccccccccccccccccccccccccccccccccccccccccccccccccccccccccccccccccccccccccccccccccccccccccccccccccccccccccccccccccccccccccccccccccccccccccccccccccccccccccccccccccccccccccccccccccccccccccccccccccccccccccccccccccccccccccccccccccccccccccccccccccccccccccccccccccccccccccccccccccccccccccccccccccccccccccccssscccccccccccccccccccccccccccccccccccccsccccccccccccccccccccccccccccccccccccccccccccccccccccccccccccccccccccccccccccccccccccccccccccccccccccccccccccccccccccccccccccccccccccccccccccccccccccccccccccccccccccccccccccccccccccccccccccccccccccccccccccccccccccccccccccccccccccccccccccccccccccccccccccccccccccccccccccccccccccccccccccccccccccccccccccscccccccccccccccccccccccccccccccccccccccccccc" /><path
             id="path3497"
             style="opacity:1;fill:none;fill-opacity:1;fill-rule:nonzero;stroke:url(#linearGradient4255);stroke-width:82.71343994;stroke-linecap:butt;stroke-linejoin:miter;stroke-miterlimit:4;stroke-dasharray:none;stroke-opacity:0.53645833"
             d="m 2000.5572,3749.7333 c -90.3704,-78.3558 -151.2725,-238.5596 -170.9603,-414.9861 396.6086,20.6114 740.6104,13.6225 1037.1675,-7.0716 39.2238,266.1431 202.0255,499.6445 393.3562,565.4534 -125.9251,-106.4631 -214.7806,-327.9474 -246.4096,-570.0819 340.3061,-28.0116 604.2823,-54.028 821.6454,-66.6773 86.5168,299.889 346.7853,572.9064 591.9711,552.0503 -174.4814,-44.3693 -354.8117,-302.1596 -460.6975,-565.799 444.3853,10.2547 807.0987,-56.3616 1124.5997,81.5417 -295.521,461.936 -778.2456,784.817 -1347.3779,814.5093 -946.9702,103.8696 -1935.4462,-196.6139 -2713.0955,-795.1122 762.3521,621.894 1823.7174,950.2343 2739.0427,891.9293 597.0126,-59.8999 1095.9721,-347.7264 1429.438,-837.1309 l 25.5053,18.4221 c 255.7988,143.702 220.6547,1057.1994 -773.2018,1503.9227 -12.419,-301.4034 29.9557,-598.4217 116.1151,-803.3203 -184.1451,215.4971 -364.1602,571.2532 -383.4481,908.0226 -419.7023,120.4951 -910.1094,120.0502 -1400.4881,-23.2019 131.0777,-216.9211 806.8619,-300.1117 960.1766,-378.3706 -211.4437,-10.7678 -993.7698,93.537 -1163.5705,303.7439 -401.598,-150.584 -795.4007,-411.0674 -1131.5936,-775.4505 161.6953,-73.3435 322.0695,-125.8487 448.059,-123.9392 -156.5997,-54.2583 -360.4694,-59.9482 -559.7119,-0.5275 -199.1215,-238.3115 -366.62318,-526.2024 -479.64175,-830.9124 308.09395,74.5899 579.65205,112.742 835.51515,131.0601 43.973,184.5345 160.7305,367.6634 307.6049,421.9234"
             inkscape:connector-curvature="0"
             sodipodi:nodetypes="cccccccccccccccccccccccccc" /><flowRoot
             xml:space="preserve"
             id="flowRoot3802"
             style="fill:black;stroke:none;stroke-opacity:1;stroke-width:1px;stroke-linejoin:miter;stroke-linecap:butt;fill-opacity:1;font-family:Sans;font-style:normal;font-weight:normal;font-size:40px;line-height:125%;letter-spacing:0px;word-spacing:0px"><flowRegion
               id="flowRegion3804"><rect
                 id="rect3806"
                 width="20.010263"
                 height="40.820938"
                 x="393.80197"
                 y="264.93588" /></flowRegion><flowPara
               id="flowPara3808" /></flowRoot><text
             xml:space="preserve"
             style="font-size:40px;font-style:normal;font-weight:normal;line-height:125%;letter-spacing:0px;word-spacing:0px;fill:#000000;fill-opacity:1;stroke:none;font-family:Sans"
             x="337.77325"
             y="89.645973"
             id="text4586"
             sodipodi:linespacing="125%"
             transform="matrix(10.191597,0,0,-10.4889,-848.37603,6363.7325)"><tspan
               sodipodi:role="line"
               id="tspan4588" /></text>
<text
             xml:space="preserve"
             style="font-style:normal;font-variant:normal;font-weight:600;font-stretch:normal;font-size:361.87130737px;line-height:125%;font-family:FreeSans;-inkscape-font-specification:'FreeSans Semi-Bold';letter-spacing:0px;word-spacing:0px;fill:none;fill-opacity:1;stroke:#c83c00;stroke-width:10.33917999;stroke-miterlimit:4;stroke-dasharray:none;stroke-opacity:1;"
             x="2064.7349"
             y="-4254.9517"
             id="text4594"
             sodipodi:linespacing="125%"
             transform="scale(0.9857259,-1.0144808)"><tspan
               sodipodi:role="line"
               id="tspan4596"
               x="2064.7349"
               y="-4254.9517"
               style="stroke:#c83c00;stroke-opacity:1;">HERBS</tspan></text>
<text
             xml:space="preserve"
             style="font-style:normal;font-variant:normal;font-weight:600;font-stretch:normal;font-size:413.56719971px;line-height:125%;font-family:FreeSans;-inkscape-font-specification:'FreeSans Semi-Bold';letter-spacing:0px;word-spacing:0px;fill:none;fill-opacity:1;stroke:#96c800;stroke-width:10.33917999;stroke-miterlimit:4;stroke-dasharray:none;stroke-opacity:1;"
             x="3451.4717"
             y="-1884.7593"
             id="text4598"
             sodipodi:linespacing="125%"
             transform="scale(0.9857259,-1.0144808)"><tspan
               sodipodi:role="line"
               id="tspan4600"
               x="3451.4717"
               y="-1884.7593"
               style="font-style:normal;font-variant:normal;font-weight:600;font-stretch:normal;font-family:FreeSans;-inkscape-font-specification:'FreeSans Semi-Bold';fill:none;stroke:#96c800;stroke-width:10.33917999;stroke-miterlimit:4;stroke-dasharray:none;stroke-opacity:1;">BRAINS</tspan></text>
<text
             xml:space="preserve"
             style="font-size:40px;font-style:normal;font-weight:normal;line-height:125%;letter-spacing:0px;word-spacing:0px;fill:#000000;fill-opacity:1;stroke:none;font-family:Sans"
             x="357.78351"
             y="314.56134"
             id="text4625"
             sodipodi:linespacing="125%"
             transform="matrix(10.191597,0,0,-10.4889,-848.37603,6363.7325)"><tspan
               sodipodi:role="line"
               id="tspan4627" /></text>
<text
             xml:space="preserve"
             style="font-style:normal;font-variant:normal;font-weight:600;font-stretch:normal;font-size:232.63154602px;line-height:125%;font-family:FreeSans;-inkscape-font-specification:'FreeSans Semi-Bold';letter-spacing:0px;word-spacing:0px;fill:none;fill-opacity:1;stroke:#000000;stroke-width:10.33917999;stroke-miterlimit:4;stroke-dasharray:none;stroke-opacity:1"
             x="2869.033"
             y="-2946.6973"
             id="text4633"
             sodipodi:linespacing="125%"
             transform="scale(0.9857259,-1.0144808)"><tspan
               sodipodi:role="line"
               id="tspan4635"
               x="2869.033"
               y="-2946.6973"
               style="font-style:normal;font-variant:normal;font-weight:600;font-stretch:normal;font-size:232.63154602px;font-family:FreeSans;-inkscape-font-specification:'FreeSans Semi-Bold';fill:none;stroke:#000000;stroke-width:10.33917999;stroke-miterlimit:4;stroke-dasharray:none;stroke-opacity:1">WITH</tspan></text>
</g></g></g></g></svg>